<svg width="36.000000" height="36.000000" viewBox="0 0 36 36" fill="none" xmlns="http://www.w3.org/2000/svg" xmlns:xlink="http://www.w3.org/1999/xlink">
	<desc>
			Created with Pixso.
	</desc>
	<defs/>
	<rect id="Component 3" rx="-0.500000" width="35.000000" height="35.000000" transform="translate(0.500000 0.500000)" fill="#FFFFFF" fill-opacity="0"/>
	<rect id="24 / basic / circle-checked" rx="-0.500000" width="20.599998" height="20.599998" transform="translate(7.699951 7.699951)" fill="#FFFFFF" fill-opacity="0"/>
	<path id="icon" d="M8.09998 18C8.09998 23.4676 12.5324 27.9 18 27.9C23.4676 27.9 27.9 23.4676 27.9 18C27.9 12.5323 23.4676 8.09998 18 8.09998C12.5324 8.09998 8.09998 12.5323 8.09998 18ZM26.1 18C26.1 22.4735 22.4735 26.1 18 26.1C13.5265 26.1 9.89998 22.4735 9.89998 18C9.89998 13.5265 13.5265 9.89996 18 9.89996C22.4735 9.89996 26.1 13.5265 26.1 18ZM20.9636 14.6636L16.2 19.4272L14.1364 17.3636L12.8636 18.6364L16.2 21.9728L22.2364 15.9364L20.9636 14.6636Z" clip-rule="evenodd" fill="#27AE60" fill-opacity="1.000000" fill-rule="evenodd"/>
</svg>
