<svg width="36.000000" height="36.000000" viewBox="0 0 36 36" fill="none" xmlns="http://www.w3.org/2000/svg" xmlns:xlink="http://www.w3.org/1999/xlink">
	<desc>
			Created with Pixso.
	</desc>
	<defs/>
	<rect id="Component 3" rx="-0.500000" width="35.000000" height="35.000000" transform="translate(0.500000 0.500000)" fill="#FFFFFF" fill-opacity="0"/>
	<rect id="24 / shopping / cart" rx="-0.380952" width="20.838093" height="20.838093" transform="translate(7.580904 7.580904)" fill="#FFFFFF" fill-opacity="0"/>
	<path id="icon" d="M12.2038 10.8544C12.3502 10.82 12.5043 10.8019 12.6641 10.8023L25.2366 11.7003C26.3632 11.7202 27.4654 12.6544 26.9213 13.8682C26.8153 14.1045 26.3369 15.067 25.5762 16.5814C25.2656 17.1997 24.9469 17.8325 24.6282 18.4643C24.4476 18.8222 24.4476 18.8222 24.3201 19.0746C24.2618 19.1901 24.239 19.2351 24.2253 19.2623C23.9667 19.9275 23.4204 20.4413 22.738 20.6578L22.6052 20.7L13.5342 20.7L13.5213 20.6993L11.7446 20.6989C11.2332 20.7243 10.8243 21.1332 10.8 21.6L10.7984 22.4461C10.8293 22.9612 11.241 23.3724 11.7 23.4L11.8536 23.4C12.2243 22.3513 13.2244 21.6 14.4 21.6C15.5756 21.6 16.5757 22.3513 16.9464 23.4L19.0536 23.4C19.4243 22.3513 20.4244 21.6 21.6 21.6C23.0912 21.6 24.3 22.8088 24.3 24.3C24.3 25.7912 23.0912 27 21.6 27C20.4244 27 19.4243 26.2487 19.0536 25.2L16.9464 25.2C16.5757 26.2487 15.5756 27 14.4 27C13.224 27 12.2236 26.2481 11.8532 25.1989L11.6489 25.1985C10.2265 25.1177 9.08713 23.9796 9 22.5L9.0011 21.5554C9.07217 20.123 10.2153 18.977 11.6909 18.9005L10.8091 12.7273L10.8 12.6C10.8 12.0178 10.5038 11.3266 10.1636 10.9864C10.0754 10.8982 9.68262 10.8 9 10.8L9 9C10.1174 9 10.9246 9.20181 11.4364 9.71359C11.7379 10.0151 12.0031 10.412 12.2038 10.8544ZM22.2924 18.9L13.6015 18.9C13.5438 18.8839 13.4997 18.835 13.4911 18.774L12.6092 12.6006L25.104 13.4954C24.8854 13.9413 24.4879 14.7376 23.9677 15.7734L23.9546 15.7994C23.6576 16.3907 23.3394 17.0226 23.0211 17.6535C22.8407 18.011 22.8407 18.011 22.7134 18.2631C22.6179 18.4521 22.6179 18.4521 22.5968 18.4939L22.5529 18.596C22.5059 18.727 22.4125 18.8346 22.2924 18.9ZM15.3 24.2999C15.3 24.797 14.8971 25.1999 14.4 25.1999C13.903 25.1999 13.5 24.797 13.5 24.2999C13.5 23.8029 13.903 23.3999 14.4 23.3999C14.8971 23.3999 15.3 23.8029 15.3 24.2999ZM21.6 25.1999C22.097 25.1999 22.5 24.797 22.5 24.2999C22.5 23.8029 22.097 23.3999 21.6 23.3999C21.1029 23.3999 20.7 23.8029 20.7 24.2999C20.7 24.797 21.1029 25.1999 21.6 25.1999Z" clip-rule="evenodd" fill="#000000" fill-opacity="1.000000" fill-rule="evenodd"/>
</svg>
